<svg width="32" height="32" viewBox="0 0 32 32" fill="none" xmlns="http://www.w3.org/2000/svg">
<path d="M30 22.5C30 23.8875 28.754 25 27.2 25H4.8C4.05739 25 3.3452 24.7366 2.8201 24.2678C2.295 23.7989 2 23.163 2 22.5C2 21.837 2.295 21.2011 2.8201 20.7322C3.3452 20.2634 4.05739 20 4.8 20H17.4L18.275 20.625C19.8306 21.7361 21.9694 21.7361 23.525 20.625L24.4 20H27.2C27.9426 20 28.6548 20.2634 29.1799 20.7322C29.705 21.2011 30 21.837 30 22.5Z" fill="#F0F0F0"/>
<rect x="16" width="1" height="8" fill="#ADA69D"/>
<path d="M24 3.5L16 6L16 1L24 3.5Z" fill="#ADA69D"/>
<path d="M29.7062 26.2938C29.8937 26.4813 30 26.7375 30 27V28C30 30.1769 28.1769 31 26 31H6C3.82463 31 2 30.1799 2 28V27C2 26.7375 2.10562 26.4813 2.29312 26.2938C2.48062 26.1063 2.735 26 3 26H29C29.2625 26 29.5187 26.1063 29.7062 26.2938Z" fill="#F0F0F0"/>
<path d="M3.14938 18.8C2.87063 18.6625 2.62688 18.4688 2.43563 18.225C2.24438 17.9813 2.11188 17.7 2.04688 17.4C1.98188 17.0938 1.98751 16.7812 2.06188 16.4812C3.43626 11.0637 9.15626 7 16 7C22.8438 7 28.5625 11.0637 29.9375 16.4812C30.0125 16.7812 30.0188 17.0938 29.95 17.4C29.8875 17.7 29.7563 17.9813 29.5625 18.225C29.3188 18.4688 29.1313 18.6625 28.85 18.8C28.575 18.9313 28.2688 19 27.9563 19H4.04188C3.73313 19 3.42751 18.9313 3.14938 18.8ZM23.2938 12.2937C23.1063 12.4812 23 12.7375 23 13C23 13.2 23.0563 13.3937 23.1688 13.5562C23.2813 13.7187 23.3813 13.85 23.6188 13.925C23.8 13.9438 24 14.0187 24.1938 13.9812C24.3875 13.9437 24.5688 13.85 24.7063 13.7063C24.85 13.5688 24.9438 13.3875 24.9813 13.1938C25.0188 13 24.9438 12.8 24.925 12.6188C24.85 12.3812 24.7188 12.2812 24.5563 12.1687C24.3938 12.0562 24.2 11.9437 24 11.9437C23.7375 11.9437 23.4813 12.1062 23.2938 12.2937ZM15.2938 10.2931C15.1063 10.4806 15 10.735 15 11C15 11.1975 15.0563 11.3938 15.1688 11.5563C15.2813 11.7188 15.3813 11.85 15.6188 11.925C15.8 11.9438 16 12.0187 16.1938 11.9812C16.3875 11.9437 16.5688 11.85 16.7063 11.7063C16.85 11.5688 16.9438 11.3875 16.9813 11.195C17.0188 11.0013 16.9438 10.8 16.925 10.6175C16.85 10.4344 16.7188 10.2781 16.5563 10.1687C16.3938 10.0587 16.2 9.94375 16 9.94375C15.7375 9.94375 15.4813 10.1056 15.2938 10.2931ZM7.29376 12.2937C7.10626 12.4812 7.00001 12.7375 7.00001 13C7.00001 13.2 7.05626 13.3937 7.16876 13.5562C7.28126 13.7187 7.38126 13.85 7.61876 13.925C7.80001 13.9438 8.00001 14.0187 8.19376 13.9812C8.38751 13.9437 8.56876 13.85 8.70626 13.7063C8.85001 13.5688 8.94376 13.3875 8.98126 13.1938C9.01876 13 8.94376 12.8 8.92501 12.6188C8.85001 12.3812 8.71876 12.2812 8.55626 12.1687C8.39376 12.0562 8.20001 11.9437 8.00001 11.9437C7.73751 11.9437 7.48126 12.1062 7.29376 12.2937Z" fill="#F0F0F0"/>
</svg>
